<svg xmlns="http://www.w3.org/2000/svg" width="90.5" height="54.813" viewBox="0 0 90.5 54.813"><path id="_2-discount.svg" data-name="2-discount.svg" d="M344.024,367.765H307.073v7.141h27.576l-21.277,46.179h9.338l21.314-48.376v-4.944Zm5.275,12.854a10.661,10.661,0,0,0,3.2,8.148,11.4,11.4,0,0,0,8.148,3.021,11.051,11.051,0,0,0,8.148-3.076,10.627,10.627,0,0,0,3.1-7.873V378.2a10.971,10.971,0,0,0-3.1-8.112,12.4,12.4,0,0,0-16.388,0,10.7,10.7,0,0,0-3.112,7.929v2.6Zm6.225-2.512a6.225,6.225,0,0,1,1.373-4.2,4.612,4.612,0,0,1,3.681-1.6,4.742,4.742,0,0,1,3.717,1.579,5.941,5.941,0,0,1,1.41,4.112v2.68a6.139,6.139,0,0,1-1.392,4.241,4.671,4.671,0,0,1-3.662,1.56,4.77,4.77,0,0,1-3.717-1.56,5.872,5.872,0,0,1-1.41-4.094v-2.717Zm19.409,32.578a10.774,10.774,0,0,0,3.132,8.075,11.309,11.309,0,0,0,8.258,3.058,10.983,10.983,0,0,0,8.184-3.095,10.709,10.709,0,0,0,3.058-7.855v-2.6a10.837,10.837,0,0,0-3.168-8.2,12.415,12.415,0,0,0-16.278,0,10.483,10.483,0,0,0-3.186,7.947v2.673Zm6.226-2.564a6.052,6.052,0,0,1,1.41-4.248,5.15,5.15,0,0,1,7.342,0,5.786,5.786,0,0,1,1.429,4.1v2.747A6.248,6.248,0,0,1,390,414.988a4.649,4.649,0,0,1-3.68,1.52,4.791,4.791,0,0,1-3.717-1.593,5.838,5.838,0,0,1-1.447-4.084v-2.71Zm7.361-32.7-4.578-2.637-26.037,41.675,4.577,2.637Z" transform="translate(-307.063 -367)" fill-rule="evenodd"/></svg>