<svg xmlns="http://www.w3.org/2000/svg" width="94" height="75" viewBox="0 0 94 75"><path id="_4-forms.svg" data-name="4-forms.svg" d="M772.934,410.353a2.922,2.922,0,0,0-2.934,2.9V425.1a2.923,2.923,0,0,0,2.934,2.9h22.55a2.922,2.922,0,0,0,2.934-2.9V413.256a2.922,2.922,0,0,0-2.934-2.9m-22.55,0a2.922,2.922,0,0,0-2.934,2.9V425.1a2.923,2.923,0,0,0,2.934,2.9h22.55a2.922,2.922,0,0,0,2.934-2.9V413.256a2.922,2.922,0,0,0-2.934-2.9m-22.55,0a2.922,2.922,0,0,0-2.934,2.9V425.1a2.923,2.923,0,0,0,2.934,2.9h22.55a2.922,2.922,0,0,0,2.934-2.9V413.256a2.922,2.922,0,0,0-2.934-2.9m-22.55,0a2.922,2.922,0,0,0-2.934,2.9V425.1a2.923,2.923,0,0,0,2.934,2.9h22.55a2.922,2.922,0,0,0,2.934-2.9V413.256a2.922,2.922,0,0,0-2.934-2.9m10.24,0a2.922,2.922,0,0,0-2.934,2.9V425.1a2.923,2.923,0,0,0,2.934,2.9h22.551a2.922,2.922,0,0,0,2.934-2.9V413.256a2.922,2.922,0,0,0-2.934-2.9m-22.551,0a2.922,2.922,0,0,0-2.934,2.9V425.1a2.923,2.923,0,0,0,2.934,2.9h22.551a2.922,2.922,0,0,0,2.934-2.9V413.256a2.922,2.922,0,0,0-2.934-2.9m-22.551,0a2.922,2.922,0,0,0-2.934,2.9V425.1a2.923,2.923,0,0,0,2.934,2.9h22.551a2.922,2.922,0,0,0,2.934-2.9V413.256a2.922,2.922,0,0,0-2.934-2.9m-22.551,0a2.922,2.922,0,0,0-2.934,2.9V425.1a2.923,2.923,0,0,0,2.934,2.9h22.551a2.922,2.922,0,0,0,2.934-2.9V413.256a2.922,2.922,0,0,0-2.934-2.9m10.24,0a2.922,2.922,0,0,0-2.934,2.9V425.1a2.923,2.923,0,0,0,2.934,2.9h22.551A2.922,2.922,0,0,0,864,425.1V413.256a2.922,2.922,0,0,0-2.934-2.9m-22.551,0a2.922,2.922,0,0,0-2.934,2.9V425.1a2.923,2.923,0,0,0,2.934,2.9h22.551A2.922,2.922,0,0,0,864,425.1V413.256a2.922,2.922,0,0,0-2.934-2.9m-22.551,0a2.922,2.922,0,0,0-2.934,2.9V425.1a2.923,2.923,0,0,0,2.934,2.9h22.551A2.922,2.922,0,0,0,864,425.1V413.256a2.922,2.922,0,0,0-2.934-2.9m-22.551,0a2.922,2.922,0,0,0-2.934,2.9V425.1a2.923,2.923,0,0,0,2.934,2.9h22.551A2.922,2.922,0,0,0,864,425.1V413.256a2.922,2.922,0,0,0-2.934-2.9M805.724,353a2.922,2.922,0,0,0-2.934,2.9v11.841a2.923,2.923,0,0,0,2.934,2.9h22.551a2.922,2.922,0,0,0,2.934-2.9V355.9a2.922,2.922,0,0,0-2.934-2.9m-22.551,0a2.922,2.922,0,0,0-2.934,2.9v11.841a2.923,2.923,0,0,0,2.934,2.9h22.551a2.922,2.922,0,0,0,2.934-2.9V355.9a2.922,2.922,0,0,0-2.934-2.9m-22.551,0a2.922,2.922,0,0,0-2.934,2.9v11.841a2.923,2.923,0,0,0,2.934,2.9h22.551a2.922,2.922,0,0,0,2.934-2.9V355.9a2.922,2.922,0,0,0-2.934-2.9m-22.551,0a2.922,2.922,0,0,0-2.934,2.9v11.841a2.923,2.923,0,0,0,2.934,2.9h22.551a2.922,2.922,0,0,0,2.934-2.9V355.9a2.922,2.922,0,0,0-2.934-2.9m-12.368,13.853,2.714-.288v46.87h-4.052v-46.87m38.9,41.87c0-14.154-17.181-28.533-36.466-28.533s-36.466,14.379-36.466,28.533,3.861,12.9,3.861-.288S799.023,384.219,817,384.219s32.605,10.734,32.605,23.928S853.466,422.588,853.466,408.435Z" transform="translate(-770 -353)" fill-rule="evenodd"/></svg>