<svg xmlns="http://www.w3.org/2000/svg" width="87.72" height="88.406" viewBox="0 0 87.72 88.406"><path id="sb-gp.svg" d="M1532.14,73A44.208,44.208,0,1,0,1576,117.2,44.037,44.037,0,0,0,1532.14,73Zm-12.24,73.95c-9.71,0-17.9-3.982-17.9-10.35,0-6.459,7.47-12.7,17.18-12.691l3.03-.028a6.888,6.888,0,0,1-2.38-4.867,7.339,7.339,0,0,1,.89-3.3l-1.61.057c-7.98,0-13.32-5.72-13.32-12.809,0-6.935,7.37-12.919,15.21-12.919h17.49l-3.92,2.852h-5.55c3.68,1.425,5.64,5.747,5.64,10.178a11.881,11.881,0,0,1-4.93,9.2c-2.83,2.226-3.36,3.156-3.36,5.045,0,1.615,3.03,4.353,4.61,5.485,4.62,3.292,6.1,6.352,6.1,11.451C1537.08,140.624,1530.97,146.948,1519.9,146.948Zm45.13-35.165h-10.96v11.034h-5.48V111.783h-10.97v-5.63h10.97V95.1h5.48v11.051h10.96v5.63Zm-39.64,14.476a14.54,14.54,0,0,0-4.35-.707c-6.72-.07-12.73,4.123-12.73,9.168,0,5.149,4.85,9.428,11.56,9.428,9.44,0,12.72-4.021,12.72-9.163a7.879,7.879,0,0,0-.21-1.818C1531.65,130.252,1529.03,128.806,1525.39,126.259Zm2.99-22.841c-0.78-5.958-5.06-10.742-9.57-10.88s-7.52,4.426-6.74,10.393,5.06,10.908,9.57,11.041C1526.13,114.109,1529.16,109.385,1528.38,103.418Z" transform="translate(-1488.28 -73)" fill="#2c90d9" fill-rule="evenodd"/></svg>