<svg xmlns="http://www.w3.org/2000/svg" width="62" height="90" viewBox="0 0 62 90"><path id="place.svg" d="M761.535,96.4a27.875,27.875,0,0,0-1.452-3.6c-5.759-13.84-18.342-18.8-28.5-18.8C717.98,74,703,83.12,701,101.919v3.841c0,0.16.055,1.6,0.134,2.32,1.121,8.96,8.19,18.481,13.47,27.44,5.68,9.6,11.574,19.041,17.414,28.48,3.6-6.159,7.188-12.4,10.707-18.4,0.959-1.76,2.072-3.52,3.032-5.2,0.64-1.119,1.862-2.238,2.421-3.279,5.679-10.4,14.822-20.879,14.822-31.2v-4.239A31.834,31.834,0,0,0,761.535,96.4Zm-29.7,19.281c-4,0-8.374-2-10.534-7.52a10.432,10.432,0,0,1-.3-2.8v-2.48c0-7.038,5.976-10.239,11.175-10.239a11.33,11.33,0,0,1,11.35,11.521A11.622,11.622,0,0,1,731.83,115.681Z" transform="translate(-701 -74)" fill-rule="evenodd"/></svg>