<svg xmlns="http://www.w3.org/2000/svg" width="85.031" height="101" viewBox="0 0 85.031 101"><path id="_3-moneyback.svg" data-name="3-moneyback.svg" d="M578.776,348.876l0.026-11.87-18.008,18.185L578.723,373.3l0.04-18.1a37.737,37.737,0,0,1,37.111,23.478,38.544,38.544,0,0,1-20.618,50.043,37.627,37.627,0,0,1-49.469-20.6l-5.782,2.43a43.835,43.835,0,0,0,57.631,24A44.315,44.315,0,0,0,612,424.869a45.1,45.1,0,0,0,9.659-48.621A43.967,43.967,0,0,0,578.776,348.876Zm9.251,56h-7.984V402.21h7.835q6.051-.075,9.448-3.111a11.843,11.843,0,0,0-.174-16.778q-3.57-3.162-9.546-3.162H573.794v17.918H568.71v5.133h5.084v2.668H568.71v5.134h5.084V415.8h6.249v-5.788h7.984v-5.134Zm-7.984-20.585h7.835a6.679,6.679,0,0,1,4.823,1.862,6.3,6.3,0,0,1,1.748,4.605,6,6,0,0,1-1.785,4.731,7.529,7.529,0,0,1-5.158,1.586h-7.463V384.293Z" transform="translate(-540 -337)" fill-rule="evenodd"/></svg>