<svg xmlns="http://www.w3.org/2000/svg" width="87.72" height="88.406" viewBox="0 0 87.72 88.406"><path id="sb-vk.svg" d="M1204.86,77.623a44.2,44.2,0,1,0,43.86,44.2A44.035,44.035,0,0,0,1204.86,77.623Zm22.25,48.983a83.746,83.746,0,0,1,6.04,6.128,17.413,17.413,0,0,1,2.17,3.139c0.83,1.629.08,3.416-1.37,3.512l-8.99,0a6.912,6.912,0,0,1-5.72-2.347c-1.24-1.274-2.4-2.636-3.59-3.955a8.656,8.656,0,0,0-1.62-1.451,1.869,1.869,0,0,0-2.99.733,9.507,9.507,0,0,0-.95,4.227c-0.1,2.137-.74,2.693-2.86,2.793a22.879,22.879,0,0,1-12.86-2.787,28.463,28.463,0,0,1-8.65-8.163,110.073,110.073,0,0,1-11.39-20.464c-0.72-1.612-.19-2.474,1.57-2.508,2.93-.057,5.87-0.051,8.8,0a2.594,2.594,0,0,1,2.44,1.843,55.15,55.15,0,0,0,5.96,11.136,9.408,9.408,0,0,0,2.26,2.5,1.36,1.36,0,0,0,2.32-.689,7.525,7.525,0,0,0,.52-2.337,35.57,35.57,0,0,0-.14-8.185,3.4,3.4,0,0,0-2.89-3.125c-0.86-.163-0.73-0.484-0.31-0.977a3.211,3.211,0,0,1,2.75-1.383l10.16,0c1.6,0.318,1.95,1.041,2.17,2.665l0.01,11.371c-0.02.627,0.31,2.491,1.43,2.9,0.9,0.3,1.49-.427,2.03-1a35.428,35.428,0,0,0,5.72-8.86c0.69-1.4,1.28-2.853,1.85-4.307a2.2,2.2,0,0,1,2.3-1.587l9.78,0.011a4.969,4.969,0,0,1,.86.054c1.65,0.283,2.1,1,1.59,2.619a24.4,24.4,0,0,1-3.89,6.788c-1.63,2.276-3.37,4.473-4.99,6.758C1225.15,123.742,1225.27,124.793,1227.11,126.606Z" transform="translate(-1161 -77.625)" fill="#2c90d9" fill-rule="evenodd"/></svg>