<svg xmlns="http://www.w3.org/2000/svg" width="88.843" height="89.031" viewBox="0 0 88.843 89.031">
  <defs>
    <style>
      .cls-1 {
        fill-rule: evenodd;
      }
    </style>
  </defs>
  <path fill='#2f7cd9' id="correct.svg" class="cls-1" d="M449.621,75.01a44.5,44.5,0,1,0,44.424,44.5A44.459,44.459,0,0,0,449.621,75.01Zm0,83.439a38.935,38.935,0,1,1,38.865-38.935A38.9,38.9,0,0,1,449.621,158.449Zm19.026-56.758-23.081,23.132-8.452-8.47A3.986,3.986,0,1,0,431.487,122L442.75,133.29a3.989,3.989,0,0,0,5.635,0l25.9-25.953a3.988,3.988,0,0,0-5.635-5.646h0Zm0,0" transform="translate(-405.188 -75)"/>
</svg>
