<svg xmlns="http://www.w3.org/2000/svg" width="107" height="91" viewBox="0 0 107 91">
  <defs>
    <style>
      .cls-1 {
        fill-rule: evenodd;
      }
    </style>
  </defs>
  <path id="chat.svg" class="cls-1" d="M980.589,146.421l13.7,16.031a4.12,4.12,0,0,0,6.409,0l13.94-16.031h53.48a4.9,4.9,0,0,0,4.88-4.929V77.934A4.869,4.869,0,0,0,1068.13,73H970.871A4.9,4.9,0,0,0,966,77.934v63.558a4.881,4.881,0,0,0,4.859,4.929h9.732Zm4.864-52.756a1.081,1.081,0,0,1,1.07-1.086h61.087a1.071,1.071,0,0,1,1.07,1.086v2.722a1.081,1.081,0,0,1-1.07,1.086H986.523a1.073,1.073,0,0,1-1.07-1.086V93.665Zm0,14.684a1.081,1.081,0,0,1,1.07-1.086h61.087a1.071,1.071,0,0,1,1.07,1.086v2.723a1.08,1.08,0,0,1-1.07,1.086H986.523a1.072,1.072,0,0,1-1.07-1.086v-2.723Zm0,14.685a1.056,1.056,0,0,1,1.016-1.087h41.741a1.056,1.056,0,0,1,1.02,1.087v2.722a1.059,1.059,0,0,1-1.02,1.086H986.469a1.056,1.056,0,0,1-1.016-1.086v-2.722Z" transform="translate(-966 -73)"/>
</svg>
