<svg xmlns="http://www.w3.org/2000/svg" width="94" height="75" viewBox="0 0 94 75">
  <defs>
    <style>
      .cls-1 {
        fill-rule: evenodd;
      }
    </style>
  </defs>
  <path id="_4-forms.svg" data-name="4-forms.svg" class="cls-1" d="M861.066,428H838.515a2.923,2.923,0,0,1-2.934-2.9V413.256a2.922,2.922,0,0,1,2.934-2.9h11.129c-0.025-.695-0.04-1.428-0.04-2.206,0-12.792-13.76-23.241-30.983-23.867v26.073h9.654a2.922,2.922,0,0,1,2.934,2.9V425.1a2.922,2.922,0,0,1-2.934,2.9H805.724a2.923,2.923,0,0,1-2.934-2.9V413.256a2.922,2.922,0,0,1,2.934-2.9h8.845V384.31c-16.843.918-30.174,11.245-30.174,23.837,0,0.778-.014,1.511-0.04,2.206h11.129a2.922,2.922,0,0,1,2.934,2.9V425.1a2.922,2.922,0,0,1-2.934,2.9h-22.55A2.923,2.923,0,0,1,770,425.1V413.256a2.922,2.922,0,0,1,2.934-2.9h7.629c-0.017-.608-0.029-1.24-0.029-1.918,0-13.556,15.76-27.309,34.035-28.448v-9.34h-8.845a2.923,2.923,0,0,1-2.934-2.9V355.9a2.922,2.922,0,0,1,2.934-2.9h22.551a2.922,2.922,0,0,1,2.934,2.9v11.841a2.922,2.922,0,0,1-2.934,2.9h-9.654v9.293c18.616,0.774,34.844,14.739,34.844,28.5,0,0.678-.011,1.31-0.028,1.918h7.629a2.922,2.922,0,0,1,2.934,2.9V425.1A2.922,2.922,0,0,1,861.066,428Z" transform="translate(-770 -353)"/>
</svg>
