<svg xmlns="http://www.w3.org/2000/svg" width="89.4" height="90.094" viewBox="0 0 89.4 90.094">
  <defs>
    <style>
      .cls-1 {
        fill: #2c90d9;
        fill-rule: evenodd;
      }
    </style>
  </defs>
  <path id="sb-inst.svg" class="cls-1" d="M1423.39,104.99a12.925,12.925,0,1,1-13.23,12.921A13.077,13.077,0,0,1,1423.39,104.99Zm20.48,13.642a20.486,20.486,0,0,1-40.96,0,19.534,19.534,0,0,1,.85-5.7h-6.05v28.048a2.631,2.631,0,0,0,2.62,2.64h45.87a2.637,2.637,0,0,0,2.62-2.64V112.935h-5.8A19.534,19.534,0,0,1,1443.87,118.632Zm-5.49-13.265h7.45a2.981,2.981,0,0,0,2.96-2.989V95.223a2.98,2.98,0,0,0-2.96-2.989h-7.45a2.989,2.989,0,0,0-2.97,2.989v7.155A2.991,2.991,0,0,0,1438.38,105.367ZM1423.33,73a45.055,45.055,0,1,0,44.7,45.053A44.884,44.884,0,0,0,1423.33,73Zm24.48,78.252h-48.97a8.283,8.283,0,0,1-8.45-8.521V93.378a8.283,8.283,0,0,1,8.45-8.521h48.97a8.291,8.291,0,0,1,8.46,8.521v49.355A8.291,8.291,0,0,1,1447.81,151.254Z" transform="translate(-1378.63 -73)"/>
</svg>
