<svg xmlns="http://www.w3.org/2000/svg" width="74" height="88" viewBox="0 0 74 88">
  <defs>
    <style>
      .cls-1 {
        fill-rule: evenodd;
      }
    </style>
  </defs>
  <path id="_6-Konspekt.svg" data-name="6-Konspekt.svg" class="cls-1" d="M1306.6,347.011h-58.99a2.625,2.625,0,0,0-2.61,2.635v82.708a2.625,2.625,0,0,0,2.61,2.635h58.99a12.462,12.462,0,0,0,12.4-12.5V359.509A12.462,12.462,0,0,0,1306.6,347.011Zm-56.48,82.816V352.173h56.48a7.313,7.313,0,0,1,7.28,7.336v62.982a7.313,7.313,0,0,1-7.28,7.336h-56.48Zm8.33-79.93h4.81v83.161h-4.81V349.9Z" transform="translate(-1245 -347)"/>
</svg>
