<svg xmlns="http://www.w3.org/2000/svg" width="74" height="88" viewBox="0 0 74 88">
  <defs>
    <style>
      .cls-1 {
        fill-rule: evenodd;
      }
    </style>
  </defs>
  <path id="_6-Konspekt.svg" data-name="6-Konspekt.svg" class="cls-1" d="M1306.6,434.989h-58.99a2.625,2.625,0,0,1-2.61-2.635V349.646a2.625,2.625,0,0,1,2.61-2.635h58.99a12.462,12.462,0,0,1,12.4,12.5v62.982A12.462,12.462,0,0,1,1306.6,434.989Zm-56.48-5.162h8.33V352.173h-8.33v77.654Zm63.76-70.318a7.313,7.313,0,0,0-7.28-7.336h-43.34v77.654h43.34a7.313,7.313,0,0,0,7.28-7.336V359.509Z" transform="translate(-1245 -347)"/>
</svg>
