<svg xmlns="http://www.w3.org/2000/svg" width="122.938" height="88.063" viewBox="0 0 122.938 88.063">
  <defs>
    <style>
      .cls-1 {
        fill-rule: evenodd;
      }
    </style>
  </defs>
  <path id="mail.svg" class="cls-1" d="M818.744,81.143l44.289,35.9a13.7,13.7,0,0,0,14.927,0l44.289-35.9c3.543-2.858,2.742-5.2-1.763-5.2H820.515C816.007,75.941,815.205,78.285,818.744,81.143Zm106.7,9.472-48.4,37.6a11.529,11.529,0,0,1-13.09,0l-48.4-37.6c-3.6-2.788-6.534-1.292-6.534,3.319v61.689a8.319,8.319,0,0,0,8.2,8.388H923.779a8.32,8.32,0,0,0,8.2-8.388V93.934C931.978,89.323,929.038,87.827,925.443,90.615Z" transform="translate(-809.031 -75.938)"/>
</svg>
