<svg xmlns="http://www.w3.org/2000/svg" width="90.969" height="91" viewBox="0 0 90.969 91">
  <defs>
    <style>
      .cls-1 {
        fill-rule: evenodd;
      }
    </style>
  </defs>
  <path id="phone.svg" class="cls-1" d="M677.946,144.98L663.9,130.894a7.316,7.316,0,0,0-10.328.195l-7.078,7.095c-0.448-.248-0.909-0.506-1.4-0.78a66.423,66.423,0,0,1-29.363-29.438c-0.263-.475-0.514-0.933-0.761-1.368l4.751-4.755,2.334-2.344a7.347,7.347,0,0,0,.188-10.354L608.194,75.06a7.305,7.305,0,0,0-10.328.2l-3.96,3.992,0.109,0.108a22.936,22.936,0,0,0-3.262,5.769,23.942,23.942,0,0,0-1.453,5.851c-1.854,15.416,5.173,29.506,24.246,48.625,26.364,26.425,47.611,24.429,48.527,24.331a23.692,23.692,0,0,0,5.854-1.474,22.776,22.776,0,0,0,5.734-3.256l0.087,0.077,4.011-3.938A7.361,7.361,0,0,0,677.946,144.98Z" transform="translate(-589.031 -73)"/>
</svg>
