<svg xmlns="http://www.w3.org/2000/svg" width="92" height="77" viewBox="0 0 92 77">
  <defs>
    <style>
      .cls-1 {
        fill-rule: evenodd;
      }
    </style>
  </defs>
  <path id="_5-Prcatice.svg" data-name="5-Prcatice.svg" class="cls-1" d="M1088.48,352.991h-78.94a6.5,6.5,0,0,0-6.52,6.469L1003,412.832a6.508,6.508,0,0,0,6.52,6.479h25.83v6.418h-5.05a0.718,0.718,0,0,0-.7.729v2.815a0.718,0.718,0,0,0,.7.736h37.27a0.845,0.845,0,0,0,.83-0.736v-2.815a0.839,0.839,0,0,0-.83-0.729h-4.92v-6.418h25.82a6.506,6.506,0,0,0,6.51-6.479l0.02-53.367A6.5,6.5,0,0,0,1088.48,352.991Zm-39.57,60.95a1.8,1.8,0,1,1,1.81-1.8A1.8,1.8,0,0,1,1048.91,413.941Zm40.33-8.892h-80.49V358.7h80.49v46.354Z" transform="translate(-1003 -353)"/>
</svg>
