<svg xmlns="http://www.w3.org/2000/svg" width="92" height="81" viewBox="0 0 92 81">
  <defs>
    <style>
      .cls-1 {
        fill-rule: evenodd;
      }
    </style>
  </defs>
  <path id="_1-teacher.svg" data-name="1-teacher.svg" class="cls-1" d="M166,372.357a8.629,8.629,0,0,0-6.688-8.458L121.9,355.212A8.555,8.555,0,0,0,120,355a8.7,8.7,0,0,0-1.94.22L80.688,363.9a8.693,8.693,0,0,0,0,16.916l7.69,1.786v24.47c0,7.679,8.735,14.465,31.625,14.465s31.625-6.786,31.625-14.465V382.6l7.687-1.786A8.629,8.629,0,0,0,166,372.357Zm-20.125,34.714c0,3.2-8.625,8.679-25.875,8.679s-25.875-5.481-25.875-8.679V383.937L118.1,389.5a8.666,8.666,0,0,0,3.841-.009l23.938-5.557v23.134Zm-25.228-23.214-0.647.072-0.647-.072-37.375-8.679a2.9,2.9,0,0,1,0-5.642l37.375-8.678,0.647-.072,0.647,0.072,37.374,8.678a2.9,2.9,0,0,1,0,5.642Zm36.728,2.964v26.036a2.875,2.875,0,1,0,5.75,0V386.821A2.875,2.875,0,1,0,157.375,386.821Zm2.875,31.822c-3.178,0-5.75,8.379-5.75,11.571a5.75,5.75,0,1,0,11.5,0C166,427.022,163.423,418.643,160.25,418.643Z" transform="translate(-74 -355)"/>
</svg>
